<svg xmlns="http://www.w3.org/2000/svg" viewBox="0 0 800 600" width="800" height="600" role="img" aria-label="Computer laboratory">
  <defs>
    <linearGradient id="wall" x1="0" y1="0" x2="0" y2="1">
      <stop offset="0%" stop-color="#f1f5f9" />
      <stop offset="100%" stop-color="#cbd5e1" />
    </linearGradient>
  </defs>
  <rect width="800" height="600" fill="url(#wall)" />
  <rect y="470" width="800" height="130" fill="#94a3b8" />
  <rect y="464" width="800" height="12" fill="#64748b" />
  <g>
    <rect x="60" y="90" width="150" height="100" rx="8" fill="#ffffff" stroke="#94a3b8" stroke-width="4" />
    <circle cx="135" cy="140" r="30" fill="none" stroke="#0ea5e9" stroke-width="6" />
    <circle cx="135" cy="140" r="10" fill="#0ea5e9" />
  </g>
  <g>
    <rect x="590" y="80" width="150" height="120" rx="8" fill="#ffffff" stroke="#94a3b8" stroke-width="4" />
    <rect x="608" y="100" width="114" height="10" rx="5" fill="#22c55e" />
    <rect x="608" y="122" width="80" height="10" rx="5" fill="#94a3b8" />
    <rect x="608" y="144" width="100" height="10" rx="5" fill="#94a3b8" />
    <rect x="608" y="166" width="60" height="10" rx="5" fill="#94a3b8" />
  </g>
  <g>
    <rect x="60" y="290" width="320" height="16" rx="6" fill="#a16207" />
    <rect x="80" y="306" width="16" height="90" fill="#92400e" />
    <rect x="344" y="306" width="16" height="90" fill="#92400e" />
    <rect x="110" y="210" width="130" height="82" rx="6" fill="#1e293b" stroke="#475569" stroke-width="5" />
    <rect x="122" y="222" width="106" height="58" rx="3" fill="#0ea5e9" />
    <rect x="150" y="292" width="50" height="14" fill="#334155" />
    <rect x="140" y="304" width="70" height="8" rx="4" fill="#475569" />
    <rect x="252" y="266" width="70" height="26" rx="4" fill="#334155" />
  </g>
  <g>
    <rect x="420" y="290" width="320" height="16" rx="6" fill="#a16207" />
    <rect x="440" y="306" width="16" height="90" fill="#92400e" />
    <rect x="704" y="306" width="16" height="90" fill="#92400e" />
    <rect x="470" y="210" width="130" height="82" rx="6" fill="#1e293b" stroke="#475569" stroke-width="5" />
    <rect x="482" y="222" width="106" height="58" rx="3" fill="#a855f7" />
    <rect x="510" y="292" width="50" height="14" fill="#334155" />
    <rect x="500" y="304" width="70" height="8" rx="4" fill="#475569" />
    <rect x="612" y="266" width="70" height="26" rx="4" fill="#334155" />
  </g>
  <g fill="#166534">
    <circle cx="120" cy="430" r="16" />
    <rect x="104" y="443" width="32" height="46" rx="12" />
    <circle cx="230" cy="434" r="15" />
    <rect x="215" y="446" width="30" height="43" rx="11" />
    <circle cx="480" cy="430" r="16" />
    <rect x="464" y="443" width="32" height="46" rx="12" />
    <circle cx="600" cy="434" r="15" />
    <rect x="585" y="446" width="30" height="43" rx="11" />
  </g>
</svg>
